<svg width="153" height="350" viewBox="0 0 153 350" fill="none" xmlns="http://www.w3.org/2000/svg">
<path d="M91.5828 8.30925C93.9977 9.61395 97.895 4.45333 98.7782 6.97763C99.6615 9.50192 97.5223 19.6872 96.4186 22.1299C95.8701 23.3441 95.0946 24.4546 94.5564 25.6731C93.9392 26.8722 93.8138 28.2508 94.2053 29.5347C95.0333 31.6966 97.7658 32.576 99.1207 34.4761C100.699 36.6892 100.061 39.6699 99.3237 42.2576C98.7802 44.5137 97.9269 46.6901 96.7863 48.7297C95.6253 50.7837 93.7084 52.3469 91.4112 53.1129C88.4755 53.9516 85.3378 52.9549 82.5076 51.8296C79.751 50.8228 77.1511 49.4572 74.7805 47.771C72.3999 46.068 70.6327 43.692 69.7263 40.9754C68.7115 37.561 69.5593 33.8243 71.3163 30.7007C73.2022 27.6398 75.5715 24.8793 78.3392 22.518C82.8325 18.3788 87.6088 14.5332 92.6361 11.0071" fill="#2F2E41"/>
<path d="M55.6686 183.508L60.7027 228.682C60.7027 228.682 48.9565 252.076 61.5417 280.31L62.3807 296.443L76.6439 294.83L73.2879 281.116L80.839 225.456L86.7121 185.122L55.6686 183.508Z" fill="#FFB6B6"/>
<path d="M95.9412 182.702C95.9412 182.702 92.5852 218.195 99.2973 236.749C99.2973 236.749 95.9412 264.983 105.17 294.83V317.052L120.273 314.19L119.434 231.102L123.629 185.928L95.9412 182.702Z" fill="#FFB6B6"/>
<path d="M98.0868 44.55C96.0162 47.0455 93.105 48.7682 89.8551 49.4214C86.6051 50.0745 83.22 49.617 80.2832 48.1279C71.6447 43.7511 59.8506 38.735 57.7661 42.7432C55.7344 46.7095 54.5911 51.0416 54.4101 55.4595L51.054 130.671C51.054 130.671 49.376 161.039 70.3513 158.358C91.3266 155.678 124.048 166.971 124.048 166.971L116.078 87.5138L114.4 56.0534L106.848 52.8266C106.848 52.8266 106.009 47.1799 103.492 47.1799C100.975 47.1799 100.368 41.7555 98.1544 44.4677L98.0868 44.55Z" fill="#81ADBF"/>
<path d="M53.9906 129.461L39.7274 186.735C39.7274 186.735 74.1269 206.095 90.0681 187.542L92.5852 178.668L94.2632 188.348C94.2632 188.348 118.595 202.062 125.307 193.188L124.048 166.971L108.526 136.721L53.9906 129.461Z" fill="#2F2E41"/>
<path d="M61.8864 286.937C61.8864 286.937 56.5076 290.796 58.1857 295.636C59.8637 300.476 72.4489 319.03 83.3561 316.61C94.2632 314.19 89.2291 308.543 89.2291 308.543L76.644 290.796C76.644 290.796 71.6099 291.603 69.0928 293.216C66.5758 294.83 61.8864 286.937 61.8864 286.937Z" fill="#2F2E41"/>
<path d="M105.17 310.157C105.17 310.157 95.9412 319.03 100.975 323.063C106.009 327.097 140.409 330.324 139.57 325.483C138.731 320.643 121.112 306.93 121.112 306.93C121.112 306.93 116.078 305.317 114.4 309.35C112.722 313.383 105.17 310.157 105.17 310.157Z" fill="#2F2E41"/>
<path d="M109.365 222.229C103.459 225.654 102.876 227.27 99.2973 228.682C97.4861 229.397 94.0949 230.38 87.5511 229.489C78.5347 228.261 72.975 224.76 57.3466 216.582C46.1999 210.75 40.7499 208.199 33.0152 206.902C27.2195 205.93 23.8511 206.284 21.269 206.902C12.2613 209.058 7.34436 215.738 6.16681 217.389C2.09636 223.096 1.58127 228.669 1.13273 233.522C0.567738 239.636 -0.248689 248.469 4.48878 255.303C10.4253 263.865 18.6933 260.07 33.0152 268.209C48.8447 277.205 46.1973 286.077 59.0246 290.796C75.4382 296.836 93.3076 287.29 94.2632 286.763C111.257 277.392 114.734 260.388 123.629 261.756C128.943 262.573 129.472 268.916 137.892 270.629C139.467 270.95 145.951 272.27 150.477 268.209C153.258 265.715 153.172 271.3 151.736 267.806C149.892 263.321 146.172 254.566 143.765 249.656C142.479 247.033 143.928 246.223 142.926 239.169C142.436 235.724 142.189 233.985 141.248 231.909C138.916 226.766 134.388 224.11 131.18 222.229C127.277 219.94 123.44 217.689 118.595 218.195C115.822 218.485 113.67 219.733 109.365 222.229Z" fill="#3F3D56"/>
<path d="M7.00584 241.589C5.51743 242.761 5.16292 245.137 4.4888 249.656C3.86514 253.836 4.24443 256.4 4.4888 260.949C4.85562 267.778 4.27723 267.142 4.4888 276.276C4.66289 283.792 4.74992 287.549 5.32781 290.796C6.36698 296.635 6.92063 294.392 12.0399 309.35C13.0786 312.385 13.9058 314.961 16.235 315.803C19.1534 316.859 22.5158 314.501 22.9471 314.19C23.6544 313.68 26.147 311.884 26.3031 309.35C26.5014 306.133 22.7137 305.318 19.591 300.476C17.6412 297.454 17.1725 294.428 16.235 288.376C15.3434 282.621 14.8977 279.744 16.235 277.083C18.6751 272.228 24.2576 270.723 24.6251 270.629C27.966 269.781 29.0455 270.983 33.0152 270.629C36.7285 270.299 42.8451 268.619 43.9224 265.789C46.8754 258.033 14.1158 235.989 7.00584 241.589Z" fill="#3F3D56"/>
<path d="M20.4301 230.296C18.9417 231.468 18.5871 233.844 17.913 238.362C17.2894 242.543 17.6687 245.107 17.913 249.656C18.2798 256.484 17.7015 255.849 17.913 264.983C18.0871 272.498 18.1741 276.256 18.752 279.503C19.7912 285.342 20.3449 283.098 25.4641 298.056C26.5028 301.091 27.33 303.667 29.6592 304.51C32.5776 305.566 35.94 303.207 36.3713 302.897C37.0786 302.387 39.5712 300.591 39.7274 298.056C39.9256 294.839 36.138 294.024 33.0153 289.183C31.0654 286.16 30.5967 283.134 29.6592 277.083C28.7677 271.328 28.3219 268.45 29.6592 265.789C32.0994 260.934 37.6819 259.429 38.0493 259.336C41.3902 258.487 42.4697 259.689 46.4395 259.336C50.1527 259.006 56.2693 257.325 57.3466 254.496C60.2996 246.74 27.54 224.696 20.4301 230.296Z" fill="#3F3D56"/>
<path d="M45.6004 269.823C44.656 271.208 43.5725 274.779 41.4054 281.923C40.439 285.108 34.1815 306.068 32.1762 312.577C31.5814 314.945 30.4337 317.152 28.8202 319.03C27.1094 320.921 26.1955 320.862 25.4641 322.257C23.561 325.886 27.2751 331.007 27.9812 331.937C28.803 333.02 32.6197 338.048 38.0493 337.584C38.6165 337.535 42.2858 337.222 43.0834 335.164C44.3061 332.009 37.1173 329.049 37.2103 323.87C37.2652 320.812 39.8141 319.545 43.0834 315.803C50.0972 307.777 47.1056 303.607 52.3126 297.25C60.1005 287.741 74.5751 287.567 76.6439 287.57C82.0032 287.577 89.4619 287.588 94.2632 292.41C100.957 299.132 98.1906 310.893 100.975 328.71C101.404 331.156 101.964 333.58 102.653 335.97C104.677 343.184 106.292 345.047 106.848 345.65C108.342 347.389 110.314 348.689 112.539 349.402C114.765 350.115 117.154 350.213 119.434 349.684C121.405 349.255 123.203 348.864 124.468 347.264C125.099 346.47 125.507 345.535 125.654 344.546C125.801 343.557 125.682 342.549 125.307 341.617C124.297 339.439 122.216 339.793 119.434 337.584C117.47 336.025 116.447 333.855 114.4 329.517C113.004 326.663 111.881 323.693 111.043 320.643C109.779 315.967 109.624 312.353 109.365 305.317C109.148 299.389 109.253 294.461 109.365 289.183C109.497 283.038 109.676 281.031 109.365 277.083C109.04 272.94 108.723 268.907 107.687 266.596C102.115 254.163 57.8998 251.787 45.6004 269.823Z" fill="#3F3D56"/>
<path d="M10.3619 214.969C6.77569 213.062 6.26352 208.6 5.32782 200.449C4.64623 194.511 4.24032 190.975 6.16684 186.735C7.90421 182.99 10.845 179.88 14.557 177.862C15.5498 177.337 22.0673 174.014 28.8202 176.248C29.7626 176.56 32.258 178.343 37.2103 181.895C43.1201 186.134 43.9872 186.943 44.7614 188.348C46.8329 192.11 46.6127 197.193 44.7614 198.029C43.3551 198.663 40.925 196.883 39.7274 195.608C38.2956 194.085 38.511 193.162 37.2103 191.575C36.1794 190.317 35.2096 189.879 32.1762 188.348C24.6631 184.558 24.2828 184.055 22.9471 184.315C19.6184 184.962 18.0314 188.853 17.913 189.155C16.8971 191.748 17.5937 194.107 18.752 198.029C19.4482 200.229 20.2889 202.384 21.2691 204.482C23.4562 209.511 24.0321 209.888 23.7861 210.935C22.9792 214.37 15.0982 217.487 10.3619 214.969Z" fill="#3F3D56"/>
<path d="M119.987 167.362C119.856 171.971 122.223 175.772 125.274 175.851C128.325 175.931 130.903 172.26 131.033 167.649C131.112 165.808 130.73 163.976 129.921 162.306L130.22 142.771L120.682 142.832L121.401 162.083C120.498 163.709 120.013 165.519 119.987 167.362Z" fill="#FFB6B6"/>
<path d="M113.141 55.65C113.141 55.65 125.726 59.6834 126.565 73.3969C127.404 87.1104 128.243 95.1772 128.243 95.1772L129.502 100.78C129.502 100.78 133.277 109.697 131.599 116.151C129.921 122.604 131.803 148.735 131.803 148.735L119.853 148.418L111.463 118.571L113.141 55.65Z" fill="#81ADBF"/>
<path d="M96.3608 229.086C94.9737 229.306 94.3005 236.931 96.3608 243.606C97.5513 247.1 99.1473 250.454 101.119 253.605C101.518 254.247 101.903 254.833 103.073 256.513C108.796 264.728 111.687 268.831 113.141 268.613C115.08 268.321 109.773 263.912 109.365 259.696C108.609 251.857 104.948 250.888 98.4583 239.529C94.9465 233.382 97.4435 228.914 96.3608 229.086Z" fill="#81ADBF"/>
<path d="M125.726 226.666C126.428 223.233 122.44 218.466 118.175 217.792C111.957 216.809 106.558 224.751 104.751 229.892C102.265 236.963 105.057 243.039 106.429 246.026C108.15 249.772 109.437 250.017 109.785 250.059C112.323 250.365 115.333 245.894 116.497 241.992C117.522 238.56 116.365 238.089 117.336 235.539C119.334 230.288 124.978 230.328 125.726 226.666Z" fill="#2F2E41"/>
<path d="M103.073 25.3109C103.073 28.6428 102.045 31.9 100.12 34.6704C98.1945 37.4409 95.458 39.6002 92.2562 40.8753C89.0545 42.1503 85.5314 42.484 82.1324 41.8339C78.7335 41.1839 75.6113 39.5794 73.1608 37.2233C70.7103 34.8673 69.0415 31.8655 68.3654 28.5975C67.6893 25.3296 68.0363 21.9422 69.3625 18.8639C70.6887 15.7856 72.9346 13.1544 75.8161 11.3033C78.6975 9.45216 82.0853 8.46411 85.5508 8.46411C90.198 8.46411 94.6547 10.239 97.9408 13.3984C101.227 16.5578 103.073 20.8428 103.073 25.3109Z" fill="#FFB6B6"/>
<path d="M65.7983 51.6952C69.9061 57.3642 71.9614 64.1745 71.6475 71.0771C76.2844 68.9175 79.4139 64.3547 80.4791 59.508C81.5442 54.6612 80.7316 49.5722 79.02 44.8998C79.0029 44.8531 78.9857 44.8064 78.9684 44.7598C77.683 41.3552 77.5821 37.6413 78.6809 34.1768C79.7796 30.7123 82.0187 27.6844 85.0613 25.5487C89.3114 22.6062 92.9492 18.9228 95.7858 14.6899C97.3769 12.3025 98.7293 9.30767 97.5406 6.71271C96.4454 4.32156 93.6159 3.20396 91.0121 2.45617C85.0664 0.748635 78.7491 -0.222974 72.6464 0.857505C66.5438 1.93798 60.669 5.31217 57.7848 10.5946C54.9006 15.8771 55.6562 23.0864 60.3376 27.0025C59.5924 27.2341 58.9503 27.7009 58.5155 28.3272C58.0807 28.9535 57.8785 29.7026 57.9418 30.4532C58.0051 31.2038 58.3301 31.9118 58.8642 32.4626C59.3983 33.0133 60.1102 33.3746 60.8845 33.4878C59.8836 33.4537 59.2928 34.7211 59.6497 35.6208C60.1124 36.4841 60.8751 37.1641 61.8052 37.5425C63.0561 38.2022 64.4426 38.892 64.4479 40.6194C64.4385 41.3141 64.2026 41.9883 63.7735 42.5472C62.7563 43.9114 61.1142 44.5258 59.5333 45.1026C61.2042 45.5997 62.7024 46.5255 63.8668 47.7803C65.0312 49.0352 65.8176 50.5715 66.1415 52.2241" fill="#2F2E41"/>
<path d="M75.3526 138.873L72.898 139.409L97.5964 243.874L100.051 243.338L75.3526 138.873Z" fill="#81ADBF"/>
<path d="M70.9339 146.464C74.7839 149.213 79.3797 149.531 81.1987 147.175C83.0177 144.819 81.3711 140.682 77.5194 137.933C75.9964 136.814 74.2171 136.063 72.3301 135.741L55.8647 124.293L50.4416 131.836L67.2494 142.321C68.1158 143.965 69.3792 145.386 70.9339 146.464Z" fill="#FFB6B6"/>
<path d="M60.5607 53.23C60.5607 53.23 47.2785 53.6333 44.7614 62.5068C39.6637 80.0868 37.4 98.3144 38.0493 116.554C38.0493 116.554 33.8543 133.494 44.7614 132.688L59.8637 139.141L69.9318 126.234L61.5417 116.554L60.5607 53.23Z" fill="#81ADBF"/>
</svg>
