<svg width="800" height="800" viewBox="0 0 800 800" fill="none" xmlns="http://www.w3.org/2000/svg">
<path d="M733.333 411.763C733.333 458.107 716.387 500.537 688.287 533.333M479.367 234.24C499.223 227.304 520.593 223.529 542.857 223.529C564.68 223.529 585.643 227.156 605.17 233.833M605.17 233.833C594.57 139.79 513.863 66.6667 415.873 66.6667C310.676 66.6667 225.397 150.942 225.397 254.902C225.397 277.896 229.569 299.927 237.205 320.296M605.17 233.833C627.937 241.618 648.743 253.549 666.667 268.714M237.205 320.296C228.25 318.558 218.994 317.647 209.524 317.647C130.626 317.647 66.6666 380.853 66.6666 458.823C66.6666 486.173 74.5366 511.707 88.1606 533.333M237.205 320.296C256.02 323.946 273.509 331.247 288.889 341.42" stroke="white" stroke-width="50" stroke-linecap="round"/>
<path d="M266.667 733.333H533.333" stroke="white" stroke-width="50" stroke-linecap="round" stroke-linejoin="round"/>
<path d="M166.667 633.333H366.667M633.333 633.333H500" stroke="white" stroke-width="50" stroke-linecap="round" stroke-linejoin="round"/>
<path d="M66.6666 533.333H733.333" stroke="white" stroke-width="50" stroke-linecap="round" stroke-linejoin="round"/>
</svg>
