<svg width="800" height="800" viewBox="0 0 800 800" fill="none" xmlns="http://www.w3.org/2000/svg">
<g clip-path="url(#clip0_1_2)">
<path d="M800 375C800.004 398.916 793.147 422.33 780.244 442.466C767.34 462.602 748.93 478.613 727.2 488.6C718.491 473.317 707.535 459.428 694.7 447.4C713.902 442.169 730.239 429.524 740.117 412.247C749.996 394.97 752.606 374.477 747.375 355.275C742.144 336.073 729.499 319.736 712.222 309.858C694.945 299.979 674.452 297.369 655.25 302.6C651.794 303.537 648.178 303.72 644.645 303.138C641.112 302.556 637.746 301.222 634.773 299.226C631.801 297.23 629.292 294.619 627.416 291.57C625.54 288.52 624.341 285.103 623.9 281.55C620.364 252.916 608.646 225.91 590.149 203.768C571.653 181.626 547.163 165.288 519.616 156.712C492.068 148.137 462.632 147.687 434.836 155.418C407.04 163.149 382.063 178.733 362.9 200.3C341.535 199.319 320.128 200.796 299.1 204.7C318.274 169.391 347.634 140.671 383.358 122.281C419.082 103.891 459.515 96.6807 499.394 101.59C539.273 106.499 576.75 123.3 606.947 149.806C637.144 176.312 658.662 211.294 668.7 250.2C685.621 249.346 702.538 251.941 718.425 257.827C734.312 263.712 748.837 272.766 761.117 284.439C773.397 296.111 783.176 310.157 789.861 325.725C796.545 341.293 799.994 358.058 800 375Z" fill="white"/>
<path d="M350 250C405.352 249.989 458.766 270.383 500.027 307.28C541.288 344.178 567.5 394.99 573.65 450H575C608.152 450 639.946 463.17 663.388 486.612C686.83 510.054 700 541.848 700 575C700 608.152 686.83 639.946 663.388 663.388C639.946 686.83 608.152 700 575 700H150C111.268 700.029 74.0259 685.075 46.0695 658.268C18.1132 631.461 1.60986 594.879 0.0140807 556.18C-1.5817 517.481 11.8538 479.664 37.5082 450.647C63.1626 421.629 99.047 403.66 137.65 400.5C153.101 356.512 181.83 318.407 219.868 291.448C257.906 264.489 303.377 250.006 350 250ZM525 475C525.03 432.376 509.502 391.207 481.331 359.219C453.16 327.231 414.284 306.624 371.998 301.267C329.712 295.909 286.924 306.168 251.666 330.119C216.407 354.07 191.102 390.066 180.5 431.35C179.065 436.938 175.743 441.857 171.095 445.274C166.448 448.692 160.761 450.397 155 450.1C141.718 449.51 128.452 451.575 115.977 456.174C103.503 460.772 92.0703 467.812 82.3489 476.881C72.6274 485.951 64.8121 496.867 59.36 508.993C53.9079 521.119 50.9285 534.21 50.596 547.501C50.2636 560.792 52.5848 574.016 57.4239 586.399C62.263 598.782 69.5227 610.076 78.7786 619.62C88.0345 629.164 99.1006 636.767 111.33 641.983C123.559 647.199 136.705 649.925 150 650H575C585.634 649.975 596.142 647.69 605.825 643.294C615.509 638.899 624.147 632.494 631.167 624.506C638.186 616.517 643.426 607.127 646.54 596.959C649.654 586.791 650.569 576.076 649.226 565.527C647.883 554.978 644.311 544.835 638.749 535.771C633.187 526.708 625.76 518.93 616.963 512.956C608.166 506.981 598.198 502.946 587.722 501.117C577.246 499.289 566.501 499.709 556.2 502.35C552.477 503.304 548.583 503.386 544.823 502.59C541.063 501.795 537.536 500.143 534.518 497.763C531.5 495.384 529.071 492.34 527.42 488.869C525.77 485.398 524.941 481.593 525 477.75V475Z" fill="white"/>
</g>
<defs>
<clipPath id="clip0_1_2">
<rect width="800" height="800" fill="white"/>
</clipPath>
</defs>
</svg>
