<svg width="800" height="800" viewBox="0 0 800 800" fill="none" xmlns="http://www.w3.org/2000/svg">
<g clip-path="url(#clip0_1_5)">
<path d="M550.82 81.6393C559.836 81.6393 567.213 74.2623 567.213 65.2459V16.3934C567.213 7.37705 559.836 0 550.82 0C541.803 0 534.426 7.37705 534.426 16.3934V65.2459C534.426 74.2623 541.803 81.6393 550.82 81.6393Z" fill="white"/>
<path d="M684.754 131.639C688.852 131.639 693.115 130 696.23 126.885L728.852 94.4263C735.246 88.0329 735.246 77.7049 728.852 71.3115C722.459 64.9181 712.131 64.9181 705.738 71.3115L673.115 103.77C666.721 110.164 666.721 120.492 673.115 126.885C676.393 130 680.492 131.639 684.754 131.639Z" fill="white"/>
<path d="M696.066 371.475C689.672 365.082 679.344 365.082 672.951 371.475C666.557 377.869 666.557 388.197 672.951 394.59L705.574 427.213C708.852 430.328 712.951 431.967 717.213 431.967C721.475 431.967 725.738 430.492 728.689 427.213C735.082 420.82 735.082 410.492 728.689 404.098L696.066 371.475Z" fill="white"/>
<path d="M783.607 216.557H734.754C725.738 216.557 718.361 223.934 718.361 232.951C718.361 241.967 725.738 249.344 734.754 249.344H783.607C792.623 249.344 800 241.967 800 232.951C800 223.934 792.623 216.557 783.607 216.557Z" fill="white"/>
<path d="M405.246 126.885C408.525 130 412.623 131.639 416.885 131.639C421.148 131.639 425.246 130 428.525 126.885C434.918 120.492 434.918 110.164 428.525 103.77L395.902 71.3115C389.508 64.9181 379.18 64.9181 372.787 71.3115C366.393 77.7049 366.393 88.0329 372.787 94.4263L405.246 126.885Z" fill="white"/>
<path d="M150.328 599.508C144.918 599.508 140 602.131 136.885 606.557C128.197 619.016 100.164 661.312 100.164 683.443C100.164 710.492 122.623 732.459 150.328 732.459C178.033 732.459 200.492 710.492 200.492 683.443C200.492 661.312 172.459 619.016 163.771 606.557C160.82 602.131 155.738 599.508 150.328 599.508ZM150.328 699.508C140.984 699.508 132.951 692.131 132.951 683.443C132.951 678.197 140.328 663.115 150.328 646.23C160.328 662.951 167.705 678.197 167.705 683.443C167.705 692.131 159.836 699.508 150.328 699.508Z" fill="white"/>
<path d="M416.557 599.344C411.148 599.508 406.066 602.131 403.115 606.721C394.918 619.18 367.869 661.475 367.869 683.443C367.869 710 390.328 732.459 416.885 732.459C444.59 732.459 467.049 710.492 466.885 683.279C466.885 661.147 438.852 618.852 430.164 606.393C427.049 601.967 421.967 599.344 416.557 599.344ZM417.049 699.836C408.525 699.836 400.82 692.131 400.82 683.607C400.82 678.361 407.705 663.443 417.213 646.721C427.049 663.279 434.262 678.197 434.426 683.771C434.426 692.459 426.557 699.836 417.049 699.836Z" fill="white"/>
<path d="M284.426 667.049C279.18 667.049 274.098 669.508 270.984 673.935C262.295 686.23 234.098 727.541 234.098 749.836C234.098 777.541 256.557 800 284.262 800C311.148 800 333.115 777.541 333.279 749.836C333.279 727.705 306.229 686.393 297.869 674.262C294.754 669.836 289.836 667.049 284.426 667.049ZM284.098 767.049C274.426 767.049 266.721 759.344 266.721 749.672C266.885 744.59 274.098 729.836 283.934 713.607C293.443 730 300.328 744.59 300.328 749.672C300.328 759.016 292.787 767.049 284.098 767.049Z" fill="white"/>
<path d="M664.098 178.525C647.869 151.967 622.787 131.967 593.443 122.295C536.229 103.279 472.623 128.525 442.131 181.148C418.852 171.639 393.443 166.557 366.721 166.557C328.033 166.557 290.328 177.705 258.033 198.852C229.836 217.213 206.885 242.131 190.82 271.803C175.738 267.705 160.984 266.721 150.328 266.721C110.164 266.721 72.459 282.131 44.0984 310.164C15.5738 338.197 0 375.738 0 415.902C0 498.852 67.377 566.23 150.328 566.23H366.885C472.131 566.23 558.525 484.754 566.557 381.639C593.934 379.016 619.836 367.377 640.492 348.525C663.279 327.541 678.033 299.016 682.295 268.033C686.885 236.885 680.492 205.246 664.098 178.525ZM366.885 533.115H150.328C85.5738 533.115 32.7869 480.328 32.7869 415.574C32.7869 351.475 85.5738 299.344 150.328 299.344C166.066 299.344 181.148 301.967 192.787 306.885C200.984 310.328 210.328 306.557 214.098 298.525C241.475 238.197 301.311 199.344 366.885 199.344C459.344 199.344 534.426 273.934 534.426 365.738C534.426 458.033 459.18 533.115 366.885 533.115ZM649.836 262.951C649.836 263.115 649.836 263.115 649.836 263.279C643.934 307.869 608.852 342.787 566.557 348.361C560.984 283.934 524.426 228.033 471.639 195.902C494.754 157.541 541.311 139.344 583.279 153.279C628.525 168.525 657.049 215.574 649.836 262.951Z" fill="white"/>
</g>
<defs>
<clipPath id="clip0_1_5">
<rect width="800" height="800" fill="white"/>
</clipPath>
</defs>
</svg>
