<svg width="30" height="30" viewBox="0 0 30 30" fill="none" xmlns="http://www.w3.org/2000/svg">
<g id="humidity-alt-svgrepo-com 1" clip-path="url(#clip0_6_212)">
<path id="Vector" d="M24.375 11.25C23.4087 11.2758 22.4715 10.9177 21.7687 10.254C21.0659 9.59036 20.6546 8.67526 20.625 7.70906C20.6426 7.01923 20.8549 6.34844 21.2375 5.77416L23.5969 2.26322C23.6876 2.14266 23.805 2.04484 23.94 1.97747C24.075 1.9101 24.2238 1.87503 24.3746 1.87503C24.5255 1.87503 24.6743 1.9101 24.8092 1.97747C24.9442 2.04484 25.0617 2.14266 25.1524 2.26322L27.4832 5.72813C27.8813 6.31391 28.1039 7.00113 28.125 7.70906C28.0954 8.67526 27.6841 9.59036 26.9813 10.254C26.2785 10.9177 25.3413 11.2758 24.375 11.25ZM24.375 4.4655L22.8223 6.77409C22.6283 7.04884 22.5165 7.37313 22.5 7.70906C22.5542 8.16826 22.7751 8.59159 23.1207 8.89878C23.4663 9.20597 23.9126 9.37565 24.375 9.37565C24.8374 9.37565 25.2837 9.20597 25.6293 8.89878C25.9749 8.59159 26.1958 8.16826 26.25 7.70906C26.2289 7.35514 26.1069 7.01465 25.8984 6.72788L24.375 4.4655Z" fill="white"/>
<path id="Vector_2" d="M22.0313 28.125H7.96876C6.45885 28.126 5.0024 27.5661 3.88199 26.554C2.76158 25.5418 2.05711 24.1495 1.90528 22.6473C1.75344 21.145 2.16506 19.6399 3.06026 18.424C3.95547 17.2081 5.27044 16.3681 6.75001 16.067C7.14905 14.1744 8.18661 12.4767 9.68872 11.2582C11.1908 10.0398 13.0662 9.37488 15.0003 9.37488C16.9344 9.37488 18.8098 10.0398 20.3119 11.2582C21.814 12.4767 22.8515 14.1744 23.2506 16.067C24.7298 16.3685 26.0444 17.2087 26.9392 18.4246C27.8341 19.6404 28.2455 21.1453 28.0936 22.6474C27.9417 24.1494 27.2374 25.5415 26.1172 26.5536C24.9971 27.5657 23.5409 28.1257 22.0313 28.125ZM15 11.25C13.3993 11.2514 11.8543 11.8378 10.6558 12.8989C9.4573 13.9599 8.68791 15.4224 8.49245 17.0111L8.39954 17.7726L7.63501 17.8326C6.54868 17.9179 5.53759 18.4205 4.81385 19.2352C4.0901 20.0498 3.70994 21.113 3.75311 22.2018C3.79628 23.2906 4.25943 24.3204 5.0454 25.0752C5.83137 25.8299 6.87908 26.251 7.96876 26.25H22.0313C23.121 26.2511 24.1687 25.8301 24.9548 25.0754C25.7408 24.3207 26.2041 23.2909 26.2473 22.202C26.2905 21.1132 25.9104 20.0499 25.1866 19.2352C24.4629 18.4206 23.4517 17.9179 22.3654 17.8326L21.6009 17.7726L21.5085 17.0111C21.3126 15.4224 20.5429 13.9601 19.3443 12.8991C18.1457 11.8381 16.6007 11.2516 15 11.25Z" fill="white"/>
</g>
<defs>
<clipPath id="clip0_6_212">
<rect width="30" height="30" fill="white"/>
</clipPath>
</defs>
</svg>
