<svg width="233" height="220" viewBox="0 0 233 220" fill="none" xmlns="http://www.w3.org/2000/svg">
<path d="M169.099 0C152.09 0 136.078 7.66348 124.177 21.2459C116.296 12.8348 106.015 8.16191 95.0187 8.16191C75.8289 8.16191 59.3181 22.5231 53.9288 43.0525H45.0815C20.2219 43.0525 0.00405579 66.2299 0.00405579 94.7031C0.00405579 123.176 20.2219 146.323 45.0815 146.323H169.099C204.301 146.323 232.93 113.519 232.93 73.1769C232.93 32.8034 204.301 0 169.099 0ZM169.099 131.681H45.0815C27.3558 131.681 12.9323 115.077 12.9323 94.672C12.9323 74.2672 27.3558 57.663 45.0815 57.663H59.0689C62.2464 57.663 64.9255 55.0774 65.4551 51.5571C67.885 34.8906 80.346 22.7724 95.0187 22.7724C104.52 22.7724 113.243 27.8191 118.975 36.604C120.19 38.442 122.059 39.5323 124.084 39.5635C125.984 39.5635 128.009 38.5666 129.255 36.7598C139.006 22.6789 153.492 14.6105 169.068 14.6105C197.136 14.6105 219.971 40.8719 219.971 73.1457C220.002 105.42 197.167 131.681 169.099 131.681ZM40.2217 163.145L1.8732 207.038C-0.650144 209.905 -0.618992 214.546 1.9355 217.381C3.18159 218.783 4.83267 219.499 6.48374 219.499C8.16597 219.499 9.81704 218.783 11.0943 217.319L49.4428 173.425C51.9662 170.559 51.935 165.917 49.3805 163.083C46.826 160.217 42.7139 160.248 40.2217 163.145ZM99.8162 163.083C97.2617 160.248 93.1807 160.279 90.6574 163.145L71.4987 185.076C68.9753 187.942 69.0065 192.584 71.561 195.419C72.8071 196.821 74.4582 197.537 76.1092 197.537C77.7915 197.537 79.4425 196.821 80.7198 195.356L99.8785 173.425C102.402 170.528 102.371 165.917 99.8162 163.083ZM192.37 163.145L173.211 185.076C170.688 187.942 170.719 192.584 173.273 195.419C174.52 196.821 176.171 197.537 177.822 197.537C179.504 197.537 181.155 196.821 182.432 195.356L201.591 173.425C204.114 170.559 204.083 165.917 201.529 163.083C198.974 160.217 194.893 160.248 192.37 163.145ZM141.965 163.145L103.617 207.038C101.093 209.905 101.125 214.546 103.679 217.381C104.925 218.783 106.576 219.499 108.227 219.499C109.91 219.499 111.561 218.783 112.838 217.319L151.155 173.425C153.679 170.559 153.647 165.917 151.093 163.083C148.57 160.217 144.457 160.248 141.965 163.145Z" fill="white"/>
</svg>
