<svg width="217" height="217" viewBox="0 0 217 217" fill="none" xmlns="http://www.w3.org/2000/svg">
<path d="M135.053 156.52C132.849 156.52 131.048 154.718 131.048 152.515C131.048 150.311 132.849 148.509 135.053 148.509C136.197 148.509 137.299 148.488 138.401 148.467C139.609 148.446 140.838 148.403 142.216 148.403C158.257 148.403 171.29 134.438 171.29 117.273C171.29 100.108 158.236 86.1431 142.216 86.1431C138.867 86.1431 135.583 86.7576 132.446 87.9443L127.487 89.8516L127.021 84.5537C125.368 65.4391 110.556 51.0077 92.5851 51.0077C75.4201 51.0077 60.7133 64.6974 58.3398 82.8372L57.8312 86.7152L53.932 86.3126C52.9572 86.2066 51.9824 86.1643 51.0288 86.1643C34.9869 86.1643 21.9542 100.129 21.9542 117.294C21.9542 133.739 33.6942 147.238 48.507 148.425L52.5122 148.382H52.9996C53.1479 148.382 53.3175 148.403 53.4658 148.425L60.8192 148.446C63.0231 148.446 64.8244 150.247 64.8244 152.472C64.8244 154.676 63.0231 156.477 60.8192 156.477L52.8936 156.456C52.6817 156.477 52.4274 156.477 52.1519 156.499C51.5374 156.52 50.8805 156.541 50.6474 156.541C40.7086 156.541 31.4267 152.409 24.4972 144.907C17.6947 137.532 13.9438 127.721 13.9438 117.294C13.9438 95.7216 30.5791 78.1539 51.0076 78.1539C55.3095 57.8737 72.6017 43.0186 92.5851 43.0186C103.329 43.0186 113.586 47.2568 121.469 54.9281C128.102 61.3915 132.573 69.8257 134.332 79.0439C136.918 78.4506 139.545 78.1539 142.216 78.1539C162.665 78.1539 179.322 95.7216 179.322 117.294C179.322 138.867 162.686 156.435 142.216 156.435C140.923 156.435 139.736 156.456 138.592 156.477C137.405 156.499 136.261 156.52 135.053 156.52Z" fill="white"/>
<path d="M84.7868 165.208C83.4306 165.208 82.3286 164.106 82.3286 162.75V141.325C82.3286 139.969 83.4306 138.867 84.7868 138.867C86.1431 138.867 87.245 139.969 87.245 141.325V162.75C87.2662 164.106 86.1643 165.208 84.7868 165.208Z" fill="white"/>
<path d="M92.3733 162.072C91.7376 162.072 91.1018 161.839 90.6356 161.351L75.4838 146.2C74.5302 145.246 74.5302 143.678 75.4838 142.703C76.4374 141.749 78.0056 141.749 78.9804 142.703L94.1322 157.855C95.0858 158.808 95.0858 160.377 94.1322 161.351C93.6448 161.839 93.0091 162.072 92.3733 162.072Z" fill="white"/>
<path d="M77.2214 162.072C76.5856 162.072 75.95 161.839 75.4838 161.351C74.5302 160.398 74.5302 158.83 75.4838 157.855L90.6356 142.703C91.5892 141.749 93.1574 141.749 94.1322 142.703C95.0858 143.657 95.0858 145.225 94.1322 146.2L78.9804 161.351C78.4718 161.839 77.8571 162.072 77.2214 162.072Z" fill="white"/>
<path d="M95.5097 154.507H74.0852C72.7289 154.507 71.627 153.405 71.627 152.048C71.627 150.692 72.7289 149.59 74.0852 149.59H95.5097C96.8659 149.59 97.9679 150.692 97.9679 152.048C97.9679 153.405 96.8659 154.507 95.5097 154.507Z" fill="white"/>
<path d="M111.975 141.792C110.916 141.792 110.047 140.923 110.047 139.863V123.186C110.047 122.126 110.916 121.257 111.975 121.257C113.035 121.257 113.904 122.126 113.904 123.186V139.863C113.904 140.923 113.035 141.792 111.975 141.792Z" fill="white"/>
<path d="M117.888 139.355C117.4 139.355 116.913 139.164 116.532 138.783L104.749 127C104.007 126.258 104.007 125.029 104.749 124.288C105.491 123.546 106.72 123.546 107.462 124.288L119.244 136.07C119.986 136.812 119.986 138.041 119.244 138.783C118.863 139.164 118.375 139.355 117.888 139.355Z" fill="white"/>
<path d="M106.084 139.355C105.597 139.355 105.109 139.164 104.728 138.783C103.986 138.041 103.986 136.812 104.728 136.07L116.51 124.288C117.252 123.546 118.481 123.546 119.223 124.288C119.965 125.029 119.965 126.258 119.223 127L107.44 138.783C107.08 139.164 106.572 139.355 106.084 139.355Z" fill="white"/>
<path d="M120.325 133.463H103.647C102.588 133.463 101.719 132.595 101.719 131.535C101.719 130.475 102.588 129.607 103.647 129.607H120.325C121.384 129.607 122.253 130.475 122.253 131.535C122.232 132.595 121.384 133.463 120.325 133.463Z" fill="white"/>
<path d="M114.073 177.775C112.802 177.775 111.763 176.736 111.763 175.465V155.397C111.763 154.125 112.802 153.087 114.073 153.087C115.345 153.087 116.383 154.125 116.383 155.397V175.465C116.383 176.736 115.345 177.775 114.073 177.775Z" fill="white"/>
<path d="M121.172 174.829C120.579 174.829 119.986 174.596 119.541 174.151L105.342 159.953C104.431 159.042 104.431 157.579 105.342 156.689C106.254 155.778 107.716 155.778 108.606 156.689L122.804 170.888C123.715 171.799 123.715 173.261 122.804 174.151C122.359 174.596 121.766 174.829 121.172 174.829Z" fill="white"/>
<path d="M106.974 174.829C106.381 174.829 105.787 174.596 105.342 174.151C104.431 173.24 104.431 171.778 105.342 170.888L119.541 156.689C120.452 155.778 121.914 155.778 122.804 156.689C123.715 157.6 123.715 159.063 122.804 159.953L108.606 174.151C108.161 174.596 107.568 174.829 106.974 174.829Z" fill="white"/>
<path d="M124.118 167.73H104.05C102.778 167.73 101.74 166.692 101.74 165.42C101.74 164.149 102.778 163.11 104.05 163.11H124.118C125.39 163.11 126.428 164.149 126.428 165.42C126.428 166.692 125.39 167.73 124.118 167.73Z" fill="white"/>
</svg>
