<svg width="30" height="30" viewBox="0 0 30 30" fill="none" xmlns="http://www.w3.org/2000/svg">
<g id="temperature-svgrepo-com 1">
<path id="Vector" d="M18.75 7.5V6.25C18.75 4.17894 17.0711 2.5 15 2.5C12.9289 2.5 11.25 4.17894 11.25 6.25V14.1846C11.25 14.6071 11.0313 14.9946 10.7018 15.259C9.13081 16.519 8.125 18.4545 8.125 20.625C8.125 24.422 11.203 27.5 15 27.5C18.797 27.5 21.875 24.422 21.875 20.625C21.875 18.4545 20.8692 16.519 19.2982 15.259C18.9686 14.9946 18.75 14.6071 18.75 14.1846V12.5" stroke="white" stroke-linecap="round"/>
<path id="Vector_2" d="M18.1247 20.625C18.1247 22.3509 16.7256 23.75 14.9997 23.75C13.2737 23.75 11.8747 22.3509 11.8747 20.625C11.8747 18.8991 13.2737 17.5 14.9997 17.5C16.7256 17.5 18.1247 18.8991 18.1247 20.625Z" stroke="white"/>
<path id="Vector_3" d="M15 17.5V15M15 6.25V10" stroke="white" stroke-linecap="round"/>
</g>
</svg>
