<svg width="800" height="800" viewBox="0 0 800 800" fill="none" xmlns="http://www.w3.org/2000/svg">
<g clip-path="url(#clip0_1_47)">
<path d="M525 750C520.738 750 516.547 748.911 512.824 746.835C509.102 744.76 505.972 741.767 503.731 738.142C501.491 734.516 500.214 730.378 500.023 726.12C499.832 721.862 500.733 717.627 502.64 713.815L552.64 613.802C554.109 610.866 556.141 608.248 558.622 606.097C561.102 603.946 563.982 602.305 567.097 601.267C570.212 600.229 573.501 599.815 576.776 600.048C580.05 600.282 583.247 601.158 586.184 602.626C589.12 604.095 591.738 606.128 593.889 608.608C596.04 611.089 597.681 613.969 598.719 617.083C599.757 620.198 600.171 623.487 599.938 626.762C599.705 630.037 598.829 633.234 597.36 636.17L547.36 736.17C545.289 740.328 542.1 743.825 538.149 746.269C534.199 748.712 529.645 750.004 525 750Z" fill="white"/>
<path d="M225 800C220.738 800 216.547 798.911 212.824 796.835C209.102 794.76 205.971 791.767 203.731 788.142C201.491 784.516 200.214 780.378 200.023 776.12C199.832 771.862 200.733 767.627 202.64 763.815L252.64 663.802C254.109 660.866 256.141 658.248 258.622 656.097C261.102 653.946 263.982 652.305 267.097 651.267C270.212 650.229 273.501 649.815 276.776 650.048C280.05 650.282 283.247 651.158 286.184 652.626C289.12 654.095 291.738 656.128 293.889 658.608C296.04 661.089 297.681 663.969 298.719 667.083C299.757 670.198 300.171 673.487 299.938 676.762C299.705 680.037 298.829 683.234 297.36 686.17L247.36 786.17C245.289 790.328 242.1 793.825 238.149 796.269C234.199 798.712 229.645 800.004 225 800Z" fill="white"/>
<path d="M397.525 762.4L354.125 737.6L432.75 600H282.75L404.125 387.6L447.525 412.4L368.9 550H518.925L397.525 762.4Z" fill="white"/>
<path d="M620.02 228.405C609.367 177.948 581.694 132.686 541.639 100.205C501.584 67.7234 451.582 49.9974 400.012 49.9974C348.443 49.9974 298.441 67.7234 258.386 100.205C218.331 132.686 190.658 177.948 180.005 228.405C142.824 235.961 109.466 256.303 85.7228 285.896C61.98 315.49 49.3536 352.465 50.037 390.399C50.7203 428.334 64.6702 464.83 89.4633 493.549C114.257 522.268 148.326 541.395 185.755 547.608L152.65 613.818C151.121 616.76 150.193 619.976 149.919 623.281C149.645 626.585 150.031 629.911 151.054 633.064C152.078 636.218 153.719 639.136 155.881 641.65C158.043 644.164 160.684 646.222 163.649 647.705C166.615 649.188 169.845 650.067 173.154 650.29C176.462 650.512 179.781 650.075 182.918 649.003C186.056 647.93 188.949 646.245 191.428 644.044C193.908 641.843 195.925 639.17 197.362 636.183L247.362 536.183C248.832 533.246 249.708 530.049 249.941 526.774C250.175 523.499 249.761 520.21 248.723 517.095C247.685 513.98 246.044 511.1 243.893 508.62C241.742 506.139 239.124 504.106 236.187 502.637C232.699 500.969 228.865 500.151 225 500.25V500H212.5C183.445 500.009 155.514 488.77 134.563 468.639C113.611 448.508 101.266 421.048 100.115 392.016C98.9646 362.983 109.097 334.633 128.389 312.906C147.682 291.18 174.635 277.766 203.6 275.475L223.987 273.878L226.465 253.578C231.656 211.205 252.17 172.195 284.139 143.903C316.108 115.612 357.323 99.9937 400.012 99.9937C442.702 99.9937 483.917 115.612 515.886 143.903C547.855 172.195 568.369 211.205 573.56 253.578L576.025 273.878L596.41 275.475C625.376 277.766 652.33 291.181 671.622 312.908C690.914 334.635 701.047 362.988 699.894 392.021C698.742 421.054 686.395 448.514 665.442 468.645C644.489 488.775 616.556 500.012 587.5 500H575V550H587.5C627.763 550.017 666.596 535.079 696.47 508.086C726.343 481.092 745.127 443.966 749.177 403.907C753.228 363.849 742.257 323.714 718.393 291.286C694.528 258.858 659.471 236.449 620.02 228.405Z" fill="white"/>
</g>
<defs>
<clipPath id="clip0_1_47">
<rect width="800" height="800" fill="white"/>
</clipPath>
</defs>
</svg>
