<svg width="30" height="30" viewBox="0 0 30 30" fill="none" xmlns="http://www.w3.org/2000/svg">
<g id="wind-svgrepo-com 1">
<path id="Vector" d="M3.75 10H6.25M8.75 7.32142V6.875C8.75 5.14911 10.1491 3.75 11.875 3.75C13.6009 3.75 15 5.14911 15 6.875C15 8.60089 13.6009 10 11.875 10H10" stroke="white" stroke-linecap="round"/>
<path id="Vector_2" d="M5 17.5H6.25M18.75 21.25V21.875C18.75 24.2912 20.7088 26.25 23.125 26.25C25.5412 26.25 27.5 24.2912 27.5 21.875C27.5 19.4588 25.5412 17.5 23.125 17.5H11.25" stroke="white" stroke-linecap="round"/>
<path id="Vector_3" d="M2.5 13.75H10M18.75 10V9.375C18.75 6.95875 20.7087 5 23.125 5C25.5412 5 27.5 6.95875 27.5 9.375C27.5 11.7912 25.5412 13.75 23.125 13.75H15.3125" stroke="white" stroke-linecap="round"/>
</g>
</svg>
