<svg width="150" height="339" viewBox="0 0 150 339" fill="none" xmlns="http://www.w3.org/2000/svg">
<path d="M5.91199 172.164C5.91199 172.164 -0.173714 200.351 8.12499 199.799C16.4237 199.246 12.5509 173.823 12.5509 173.823L5.91199 172.164Z" fill="#A0616A"/>
<path d="M39.1068 306.467L42.9795 326.916L51.8315 325.811L49.0651 303.703L39.1068 306.467Z" fill="#A0616A"/>
<path d="M83.9198 286.57L86.1328 301.492H97.7508L95.5378 287.675L83.9198 286.57Z" fill="#A0616A"/>
<path d="M30.2548 158.347C30.2548 158.347 20.8497 176.586 24.1691 221.906C27.4886 267.226 27.4886 310.335 27.4886 310.335L51.2782 308.677L57.9171 195.93L83.9197 293.755L101.07 292.097L96.6443 196.483L82.8132 150.61L30.2548 158.347Z" fill="#2F2E41"/>
<path d="M46.299 317.52C46.299 317.52 47.9587 312.546 45.1925 312.546H39.1068C39.1068 312.546 32.4678 324.705 28.5951 325.81C24.7224 326.916 12.551 337.417 24.1691 338.522C35.7873 339.628 53.4912 333.548 53.4912 331.337C53.4912 329.127 51.8314 319.731 51.8314 319.731L46.299 317.52Z" fill="#2F2E41"/>
<path d="M94.9845 298.176C94.9845 298.176 84.8143 295.366 85.4734 297.048C86.1326 298.729 83.9196 303.703 83.9196 303.703C83.9196 303.703 78.3872 335.206 94.9845 332.443C111.582 329.679 99.4105 305.914 99.4105 305.914L96.953 296.511L94.9845 298.176Z" fill="#2F2E41"/>
<path d="M48.5119 38.9678C57.6784 38.9678 65.1093 31.5444 65.1093 22.3872C65.1093 13.2301 57.6784 5.80674 48.5119 5.80674C39.3454 5.80674 31.9146 13.2301 31.9146 22.3872C31.9146 31.5444 39.3454 38.9678 48.5119 38.9678Z" fill="#A0616A"/>
<path d="M37.447 31.2302C37.447 31.2302 40.2132 47.258 38.5535 50.5741C36.8938 53.8902 51.8314 60.5224 51.8314 60.5224L59.5768 41.7312V31.2302L37.447 31.2302Z" fill="#A0616A"/>
<path d="M46.299 50.0214C46.299 50.0214 41.2628 50.7614 39.0783 47.0753C36.8938 43.3892 31.9146 72.6814 31.9146 72.6814C31.9146 72.6814 34.1276 111.369 31.3614 120.212C28.5951 129.055 29.1484 132.371 30.2549 134.029C31.3614 135.687 34.6808 133.477 31.9146 137.898C29.1484 142.32 29.1484 139.556 29.1484 143.978C29.1484 148.399 28.0419 164.427 28.0419 164.427L87.7924 160.005L59.5769 38.9677C59.5769 38.9677 50.1717 50.5741 46.299 50.0214Z" fill="#3F3D56"/>
<path d="M69.5353 45.0473C69.5353 45.0473 92.2183 48.3634 93.3248 53.3375C94.4313 58.3117 116.561 196.483 104.943 203.667C93.3248 210.852 55.7041 216.379 54.0444 209.194C52.3847 202.009 43.5327 55.5482 59.5769 38.9677L69.5353 45.0473Z" fill="#D0CDE1"/>
<path d="M101.487 190.635H96.8412C96.8412 190.635 98.2705 173.856 96.8412 172.309C96.8412 172.309 83.8575 170.882 70.7547 185.161C70.7547 185.161 73.0179 169.573 89.9324 168.74C95.3546 168.473 98.4885 170.627 100.242 173.678C103.961 180.144 101.487 190.635 101.487 190.635Z" fill="#3F3D56"/>
<path opacity="0.15" d="M101.487 190.635H96.8411C96.8411 190.635 98.2705 173.856 96.8411 172.309L100.242 173.678C103.961 180.144 101.487 190.635 101.487 190.635Z" fill="black"/>
<path d="M74.209 179.687L67.7767 190.635H70.7546C70.7546 190.635 71.2311 182.543 74.209 179.687Z" fill="#3F3D56"/>
<path opacity="0.15" d="M74.209 179.687L67.7767 190.635H70.7546C70.7546 190.635 71.2311 182.543 74.209 179.687Z" fill="black"/>
<path d="M129.122 236.924C129.209 238.763 128.849 240.595 128.071 242.264C127.292 243.932 126.12 245.387 124.655 246.503C124.655 246.503 65.454 260.544 58.9027 259.354C58.0971 259.204 57.3149 258.948 56.5763 258.593C51.3543 256.118 48.0631 249.359 48.0631 249.359C48.0631 249.359 47.9642 247.612 47.8177 244.766C47.5366 239.261 47.0816 229.643 46.8302 220.588C46.5825 211.642 46.5336 203.248 47.0506 199.916C48.3609 191.468 57.4137 190.754 57.4137 190.754L117.687 188.136C119.666 188.116 121.639 188.374 123.547 188.902C130.063 190.857 129.122 195.871 129.122 195.871C129.122 195.871 128.883 230.498 129.122 236.924Z" fill="#575A89"/>
<path d="M123.547 188.902C119.853 190.052 110.973 192.586 107.8 191.468C103.75 190.04 72.4223 190.992 60.9872 192.301C49.552 193.61 53.602 224.548 53.602 224.548L46.8302 220.588C46.5825 211.642 46.5336 203.248 47.0506 199.916C48.3609 191.468 57.4137 190.754 57.4137 190.754L117.687 188.136C119.666 188.116 121.639 188.374 123.547 188.902Z" fill="#3F3D56"/>
<path d="M80.284 211.102C80.284 211.102 74.5469 179.066 85.0985 174.676L86.478 174.689C86.478 174.689 83.1428 179.092 84.453 187.184C85.7633 195.276 85.0486 213.72 85.0486 213.72C85.0486 213.72 80.9987 216.1 80.284 211.102Z" fill="#2F2E41"/>
<path d="M84.4531 175.76C84.4531 175.76 90.7662 165.646 102.32 171.239C113.875 176.831 114.947 189.564 114.947 189.564C114.947 189.564 106.966 166.241 84.4531 175.76Z" fill="#2F2E41"/>
<path d="M115.781 212.411L113.875 200.154L114.828 188.678L117.21 200.511L118.282 212.411H115.781Z" fill="#2F2E41"/>
<path d="M94.3395 210.983L101.01 209.317L107.8 210.15V213.125L101.606 215.029L94.3395 214.315V210.983Z" fill="#2F2E41"/>
<path d="M55.5078 254.059C55.6722 255.609 56.0312 257.132 56.5763 258.593C51.3542 256.118 48.0631 249.359 48.0631 249.359C48.0631 249.359 47.9642 247.612 47.8177 244.766L52.1726 246.563L55.5078 254.059Z" fill="#3F3D56"/>
<path d="M58.3666 260.604C58.061 260.532 57.7817 260.376 57.5602 260.154C58.4536 260.513 58.8299 260.701 58.3666 260.604Z" fill="#2F2E41"/>
<path d="M39.0745 45.8763L17.5302 67.1546L25.2756 136.24C25.2756 136.24 9.78475 218.037 18.6367 218.037C27.4886 218.037 26.3821 219.143 28.0418 213.063C29.7016 206.984 39.0745 45.8763 39.0745 45.8763Z" fill="#D0CDE1"/>
<path d="M23.0626 65.4966L17.5302 67.1546C17.5302 67.1546 12.551 71.0234 13.1042 79.3136C13.6575 87.6039 12.551 111.369 12.551 111.369C12.551 111.369 9.2315 116.343 10.8912 122.423L3.14581 175.481L20.2964 178.244L26.3821 150.61L23.0626 65.4966Z" fill="#D0CDE1"/>
<path d="M91.6651 153.373C91.6651 153.373 85.0261 188.192 91.6651 185.982C98.304 183.771 106.603 159.453 101.07 155.584C95.5378 151.715 91.6651 153.373 91.6651 153.373Z" fill="#A0616A"/>
<path d="M31.8752 24.3316C31.8752 24.3316 30.1808 21.7925 30.8325 19.0581C31.2219 17.5057 31.3757 15.9036 31.2887 14.3055C31.2887 14.3055 32.6573 9.87832 34.0259 7.40433C35.3945 4.93034 34.7428 3.88866 39.0441 3.1074C43.3454 2.32613 41.5857 -3.2729 52.9255 2.78187C53.3081 3.3155 53.8404 3.72396 54.4551 3.95571C55.0698 4.18745 55.7395 4.23208 56.3796 4.08397C58.7258 3.62824 59.573 6.88349 59.573 6.88349C59.573 6.88349 61.1371 5.97202 61.7237 7.27412C62.3102 8.57622 66.4924 6.49262 66.4924 15.2818C66.4924 24.071 61.7332 31.922 61.7332 31.922C61.7332 31.922 62.0821 17.1375 54.3267 15.6401C46.5713 14.1427 38.2294 9.78066 36.2091 15.3797C35.1186 18.5222 33.6641 21.5265 31.8752 24.3316Z" fill="#2F2E41"/>
<path d="M24.2791 273.306C20.6045 276.354 14.1267 291.332 14.1267 291.332C16.1996 291.551 18.2857 291.617 20.3682 291.529L19.6393 287.552L22.3488 291.37C23.4058 291.257 24.4501 291.046 25.468 290.74L24.346 284.619L27.8492 289.556C27.8751 289.535 27.9018 289.515 27.9271 289.494C31.6018 286.447 33.764 280.353 32.7567 275.882C31.7493 271.412 27.9538 270.259 24.2791 273.306Z" fill="#808080"/>
<path d="M9.89699 133.344C6.76737 136.601 0.442383 151.638 0.442383 151.638C2.0704 151.675 3.69838 151.563 5.30614 151.305L5.07067 147.518L6.86808 150.985C7.72612 150.779 8.56107 150.487 9.36011 150.113L8.99772 144.284L11.3216 148.767C11.3436 148.745 11.3662 148.723 11.3877 148.701C14.5173 145.444 16.7207 139.366 16.309 135.125C15.8974 130.884 13.0266 130.086 9.89699 133.344Z" fill="#808080"/>
<path d="M126.902 182.708C125.567 184.757 124.719 189.921 124.213 194.406L126.728 197.085L124.03 196.131C123.698 199.488 123.568 202.109 123.568 202.109C123.568 202.109 134.397 199.765 136.964 195.825C139.53 191.885 139.358 185.754 136.58 182.132C133.801 178.51 129.468 178.768 126.902 182.708Z" fill="#808080"/>
<path d="M138.17 258.326C136.948 260.375 136.17 265.539 135.705 270.025L138.007 272.703L135.538 271.749C135.233 275.107 135.113 277.727 135.113 277.727C135.113 277.727 145.028 275.381 147.379 271.44C149.729 267.499 149.574 261.368 147.031 257.747C144.488 254.126 140.521 254.385 138.17 258.326Z" fill="#808080"/>
<path d="M83.9197 50.0214C83.9197 50.0214 96.6443 47.8107 99.4105 64.3912C102.177 80.9717 109.369 113.58 109.369 113.58L107.393 163.335L88.8989 157.242L89.4521 119.107L80.0469 62.1805L83.9197 50.0214Z" fill="#D0CDE1"/>
<path opacity="0.15" d="M79.2171 72.4051L86.409 119.383L84.7494 159.176L92.4951 120.488L79.2171 72.4051Z" fill="black"/>
<path d="M135.891 33.6476C132.217 36.695 125.739 51.6735 125.739 51.6735C127.812 51.8922 129.898 51.9581 131.981 51.8707L131.252 47.8937L133.961 51.7119C135.018 51.5988 136.062 51.3877 137.08 51.0812L135.958 44.9604L139.462 49.897C139.487 49.8765 139.514 49.8565 139.539 49.8355C143.214 46.7881 145.376 40.694 144.369 36.2238C143.362 31.7536 139.566 30.6002 135.891 33.6476Z" fill="#808080"/>
</svg>
